<?xml version="1.0" standalone="no"?>
<!DOCTYPE svg PUBLIC "-//W3C//DTD SVG 20010904//EN"
 "http://www.w3.org/TR/2001/REC-SVG-20010904/DTD/svg10.dtd">
<svg version="1.0" xmlns="http://www.w3.org/2000/svg"
 width="700.000000pt" height="700.000000pt" viewBox="0 0 700.000000 700.000000"
 preserveAspectRatio="xMidYMid meet">
<metadata>
Created by potrace 1.14, written by Peter Selinger 2001-2017
</metadata>
<g transform="translate(0.000000,700.000000) scale(0.100000,-0.100000)"
fill="#000000" stroke="none">
<path d="M3365 6908 c-3 -7 -4 -238 -3 -513 l3 -500 135 0 135 0 0 510 0 510
-133 3 c-100 2 -134 -1 -137 -10z"/>
<path d="M3098 6893 c-11 -3 -18 -14 -18 -27 0 -25 31 -310 33 -312 6 -4 118
13 123 19 7 7 -10 218 -23 295 -5 31 -7 32 -52 31 -25 -1 -54 -3 -63 -6z"/>
<path d="M3787 6869 c-13 -78 -30 -289 -23 -296 6 -6 117 -23 123 -19 6 5 35
327 29 333 -3 4 -33 9 -65 11 l-58 4 -6 -33z"/>
<path d="M2764 6837 l-40 -12 35 -162 c23 -108 39 -163 47 -163 7 0 36 5 64
11 35 7 50 15 50 27 0 9 -14 83 -32 164 -35 166 -31 161 -124 135z"/>
<path d="M4112 6703 c-36 -170 -38 -183 -17 -183 12 0 14 -7 8 -27 -3 -16 -50
-226 -103 -468 l-96 -440 -70 -6 c-166 -16 -282 -97 -352 -247 -24 -51 -27
-69 -27 -162 0 -98 2 -110 32 -171 40 -81 109 -151 184 -189 l57 -29 -13 -58
c-7 -32 -59 -267 -116 -523 -56 -256 -105 -469 -109 -473 -4 -5 -362 235 -795
533 l-787 542 -120 -23 c-111 -21 -119 -23 -114 -43 2 -12 12 -64 22 -118 l17
-96 740 -509 c407 -279 749 -515 760 -524 19 -15 6 -25 -267 -224 -158 -114
-289 -211 -291 -215 -4 -6 114 -179 145 -213 4 -5 135 84 291 198 156 113 285
202 287 197 2 -8 -139 -659 -153 -703 -4 -13 6 -19 56 -28 34 -7 65 -9 69 -4
3 4 42 181 84 393 43 212 79 386 81 388 2 2 99 -63 217 -144 117 -81 219 -147
227 -148 8 -1 57 59 108 133 l92 134 -52 36 c-29 20 -117 81 -195 135 -118 80
-141 101 -130 111 24 23 1877 1365 1891 1371 10 4 33 -27 77 -105 34 -61 67
-111 73 -111 16 0 697 394 697 404 0 13 -123 226 -131 226 -4 0 -137 -75 -296
-166 -321 -185 -387 -222 -358 -200 11 8 90 66 175 129 155 112 155 113 164
161 10 47 13 51 118 128 59 44 108 82 108 84 0 5 -71 104 -75 104 -2 0 -53
-35 -113 -79 l-111 -79 -45 9 -45 8 -1148 -834 c-631 -458 -1149 -832 -1151
-831 -4 4 196 995 203 1007 3 4 12 6 20 3 27 -11 147 17 205 46 76 39 142 106
182 188 31 63 33 73 33 172 0 102 -1 109 -38 182 -43 87 -102 147 -184 185
-29 14 -53 27 -53 30 0 4 159 780 181 883 8 37 15 50 28 50 15 0 24 27 52 163
39 183 42 171 -49 183 l-48 6 -32 -149z m-199 -1334 c112 -31 177 -168 132
-277 -70 -166 -310 -166 -380 0 -43 105 14 235 121 273 47 17 77 18 127 4z"/>
<path d="M2437 6748 c-33 -11 -57 -25 -54 -32 2 -6 26 -76 52 -156 26 -80 49
-146 50 -148 5 -6 125 30 125 37 0 19 -102 321 -108 320 -4 0 -33 -10 -65 -21z"/>
<path d="M4439 6610 c-28 -89 -50 -162 -48 -164 9 -6 121 -37 124 -34 1 2 24
68 50 148 26 80 50 150 52 156 3 7 -18 19 -49 29 -29 10 -58 20 -65 22 -8 3
-30 -52 -64 -157z"/>
<path d="M2115 6624 c-27 -13 -54 -25 -58 -27 -12 -4 124 -307 137 -307 6 0
34 11 63 24 l52 25 -45 103 c-26 57 -57 127 -70 156 -12 28 -24 52 -26 51 -2
0 -25 -11 -53 -25z"/>
<path d="M4805 6597 c-12 -28 -43 -98 -69 -155 l-45 -103 55 -25 c30 -13 58
-24 62 -24 8 0 145 300 140 305 -2 2 -29 15 -61 29 l-58 25 -24 -52z"/>
<path d="M1788 6457 c-59 -34 -108 -65 -108 -69 0 -6 397 -699 403 -704 5 -4
223 128 225 136 5 14 -391 700 -403 700 -5 0 -58 -28 -117 -63z"/>
<path d="M4888 6176 c-109 -189 -198 -348 -198 -353 0 -5 51 -39 113 -75 l114
-65 201 348 c111 192 202 353 202 357 0 9 -212 132 -226 132 -5 0 -98 -155
-206 -344z"/>
<path d="M1495 6269 c-22 -17 -44 -34 -48 -39 -7 -6 81 -137 173 -257 l17 -22
52 36 c28 20 51 39 51 43 0 12 -190 270 -198 269 -4 0 -25 -14 -47 -30z"/>
<path d="M5356 6169 c-53 -72 -96 -135 -96 -139 0 -4 23 -23 51 -43 l52 -36
17 22 c42 55 180 247 180 251 0 5 -98 76 -104 76 -3 0 -48 -59 -100 -131z"/>
<path d="M1210 6035 l-43 -44 34 -38 c148 -166 183 -203 193 -203 7 0 30 19
53 43 l42 42 -111 123 c-60 67 -113 122 -117 122 -4 0 -26 -20 -51 -45z"/>
<path d="M5622 5958 l-111 -123 42 -42 c23 -24 46 -43 53 -43 11 0 215 221
222 240 3 8 -70 81 -88 88 -4 1 -57 -53 -118 -120z"/>
<path d="M960 5784 l-45 -46 60 -55 c33 -30 90 -81 126 -114 l66 -58 41 42
c23 24 42 48 42 54 0 10 -221 214 -239 221 -4 1 -27 -18 -51 -44z"/>
<path d="M5870 5726 c-63 -57 -116 -109 -118 -116 -2 -6 15 -32 39 -56 l42
-43 66 58 c36 33 93 84 126 114 l60 55 -45 46 c-24 25 -47 46 -50 46 -3 0 -57
-47 -120 -104z"/>
<path d="M736 5510 c-20 -28 -36 -52 -36 -54 0 -7 261 -196 270 -196 4 0 23
23 43 51 l36 52 -22 17 c-55 42 -247 180 -251 180 -2 0 -20 -23 -40 -50z"/>
<path d="M542 5211 c-34 -60 -62 -112 -62 -117 1 -10 681 -404 697 -404 6 0
40 51 75 114 l65 114 -348 201 c-192 110 -352 201 -357 201 -4 0 -36 -49 -70
-109z"/>
<path d="M378 4889 l-27 -61 52 -23 c29 -12 98 -43 155 -69 l103 -45 25 55
c13 30 24 58 24 63 0 6 -214 106 -290 136 -11 4 -23 -12 -42 -56z"/>
<path d="M6445 4885 c-77 -35 -144 -66 -149 -68 -9 -3 30 -113 43 -121 6 -3
77 27 243 102 l67 30 -27 61 c-15 34 -29 61 -32 60 -3 0 -68 -29 -145 -64z"/>
<path d="M255 4568 c-10 -29 -20 -58 -22 -65 -3 -7 53 -30 157 -63 89 -28 163
-50 165 -48 5 6 36 120 33 123 -2 1 -68 24 -148 50 -80 26 -150 50 -156 52 -7
3 -19 -18 -29 -49z"/>
<path d="M6565 4568 c-82 -28 -151 -52 -153 -53 -6 -5 32 -125 39 -125 4 0 78
23 164 51 101 32 155 55 152 62 -2 7 -12 36 -21 65 -10 28 -21 52 -24 51 -4 0
-74 -23 -157 -51z"/>
<path d="M161 4228 c-19 -88 -27 -81 137 -116 81 -18 155 -32 163 -32 14 0 39
74 39 114 0 9 -38 21 -107 36 -60 12 -134 28 -165 35 l-57 13 -10 -50z"/>
<path d="M6665 4241 c-88 -18 -162 -35 -164 -37 -2 -2 2 -31 9 -64 9 -43 17
-60 29 -60 9 0 82 14 164 31 165 36 159 30 134 119 l-12 45 -160 -34z"/>
<path d="M106 3898 c-3 -13 -6 -42 -6 -64 0 -39 2 -42 33 -47 73 -13 288 -29
294 -23 6 6 23 117 19 123 -2 3 -283 33 -309 33 -17 0 -27 -7 -31 -22z"/>
<path d="M6685 3903 c-71 -8 -130 -15 -131 -16 -4 -6 13 -118 19 -123 7 -7
223 10 295 22 30 6 32 9 32 48 0 22 -3 51 -6 64 -7 26 -18 27 -209 5z"/>
<path d="M84 3627 c-2 -7 -3 -69 -2 -138 l3 -124 510 0 510 0 0 135 0 135
-508 3 c-412 2 -509 0 -513 -11z"/>
<path d="M5894 3627 c-2 -7 -3 -69 -2 -138 l3 -124 510 0 510 0 0 135 0 135
-508 3 c-412 2 -509 0 -513 -11z"/>
<path d="M230 3224 c-63 -7 -119 -13 -124 -13 -9 -1 -3 -117 7 -127 6 -6 177
7 293 23 l42 5 -5 42 c-9 86 -9 86 -56 85 -23 -1 -94 -7 -157 -15z"/>
<path d="M6566 3218 c-3 -13 -7 -42 -9 -64 l-5 -42 102 -11 c243 -26 232 -26
239 0 4 13 7 43 7 66 0 48 13 43 -175 63 -138 15 -154 14 -159 -12z"/>
<path d="M288 2887 c-154 -34 -149 -29 -125 -118 l12 -45 160 34 c88 18 162
36 164 38 2 2 -2 31 -9 64 -15 72 -5 71 -202 27z"/>
<path d="M6510 2860 c-7 -33 -11 -62 -9 -64 2 -2 77 -19 165 -38 l161 -34 12
49 c20 87 27 81 -136 116 -82 17 -155 31 -164 31 -12 0 -20 -17 -29 -60z"/>
<path d="M387 2560 c-82 -27 -150 -50 -153 -52 -9 -9 39 -129 50 -125 6 2 76
26 156 52 80 26 146 49 148 50 8 6 -33 125 -42 124 -6 0 -78 -23 -159 -49z"/>
<path d="M6426 2549 c-9 -34 -15 -63 -14 -64 2 -1 68 -24 148 -50 80 -26 150
-50 156 -52 7 -3 19 18 29 49 10 29 20 58 22 65 3 7 -51 30 -152 62 -86 28
-160 51 -164 51 -4 0 -15 -28 -25 -61z"/>
<path d="M545 2258 c-60 -27 -129 -58 -152 -68 l-43 -19 27 -58 c14 -32 27
-59 28 -61 3 -3 296 125 303 133 5 5 -38 114 -47 119 -3 2 -55 -19 -116 -46z"/>
<path d="M823 2112 c-188 -108 -342 -201 -343 -206 0 -14 123 -226 132 -226 5
0 165 91 357 201 l348 202 -65 113 c-35 63 -69 114 -76 114 -6 0 -165 -89
-353 -198z"/>
<path d="M5748 2196 l-65 -113 345 -199 c189 -110 350 -200 356 -202 11 -2
136 205 136 224 0 10 -681 404 -697 404 -6 0 -40 -51 -75 -114z"/>
<path d="M6314 2255 c-13 -31 -24 -59 -24 -63 0 -8 301 -145 305 -140 1 2 14
29 28 60 24 54 25 58 8 67 -16 9 -143 66 -249 112 l-43 19 -25 -55z"/>
<path d="M831 1644 c-72 -52 -131 -97 -131 -100 0 -6 71 -104 76 -104 4 0 196
138 251 180 l22 17 -36 52 c-20 28 -39 51 -43 51 -4 0 -67 -43 -139 -96z"/>
<path d="M5987 1689 c-20 -29 -36 -53 -34 -54 1 -1 62 -45 135 -98 73 -54 134
-97 136 -97 10 0 76 102 72 109 -7 11 -242 180 -259 187 -8 3 -28 -16 -50 -47z"/>
<path d="M1043 1378 c-68 -60 -123 -113 -123 -117 0 -4 20 -26 45 -51 l44 -43
38 34 c166 148 203 183 203 193 0 7 -19 30 -42 53 l-43 42 -122 -111z"/>
<path d="M5792 1447 c-23 -24 -42 -48 -42 -54 0 -10 221 -214 239 -221 4 -1
27 18 51 44 l45 46 -60 55 c-33 30 -90 81 -126 114 l-66 58 -41 -42z"/>
<path d="M1882 970 c-111 -193 -202 -354 -202 -358 0 -8 212 -132 226 -132 10
1 404 681 404 697 0 6 -42 34 -92 63 -51 29 -102 59 -113 66 -20 13 -30 -2
-223 -336z"/>
<path d="M4803 1252 c-62 -36 -113 -70 -113 -75 0 -16 394 -697 404 -697 14 0
226 123 226 132 0 6 -398 700 -403 704 -1 1 -53 -28 -114 -64z"/>
<path d="M1284 1140 c-60 -67 -110 -125 -112 -129 -1 -3 18 -27 44 -51 l46
-45 55 60 c30 33 81 90 114 126 l58 66 -48 47 -48 47 -109 -121z"/>
<path d="M5553 1208 l-42 -43 108 -120 c60 -66 113 -120 118 -120 15 0 95 75
91 85 -7 19 -211 240 -222 240 -7 0 -31 -19 -53 -42z"/>
<path d="M3365 1098 c-3 -7 -4 -238 -3 -513 l3 -500 135 0 135 0 0 510 0 510
-133 3 c-100 2 -134 -1 -137 -10z"/>
<path d="M1540 918 c-52 -72 -96 -134 -98 -138 -3 -7 91 -80 102 -80 7 0 196
261 196 270 0 6 -64 55 -95 72 -6 4 -53 -53 -105 -124z"/>
<path d="M5311 1013 c-28 -20 -51 -39 -51 -43 0 -9 189 -270 196 -270 6 0 104
71 104 76 0 4 -138 196 -180 251 l-17 22 -52 -36z"/>
<path d="M2116 559 c-37 -83 -66 -152 -64 -154 2 -1 29 -14 61 -28 l58 -26 24
52 c12 28 43 98 69 155 l45 103 -52 25 c-29 13 -57 24 -63 24 -5 0 -40 -68
-78 -151z"/>
<path d="M4743 685 l-52 -24 45 -103 c26 -57 57 -127 69 -155 l24 -52 58 25
c32 14 59 27 61 29 7 6 -133 305 -142 304 -6 0 -35 -11 -63 -24z"/>
<path d="M2436 443 c-27 -82 -51 -153 -53 -159 -3 -7 18 -19 49 -29 29 -10 58
-20 65 -22 8 -3 30 52 63 157 29 89 50 163 48 165 -4 4 -109 35 -118 35 -3 0
-27 -66 -54 -147z"/>
<path d="M4445 572 c-27 -9 -52 -17 -54 -18 -2 -2 20 -75 48 -164 34 -105 56
-160 64 -157 7 2 36 12 65 22 31 10 52 22 49 29 -2 6 -26 77 -53 159 -27 81
-53 147 -59 146 -5 0 -32 -8 -60 -17z"/>
<path d="M2759 338 l-35 -163 45 -12 c89 -24 84 -31 119 135 18 81 32 155 32
164 0 12 -15 20 -50 27 -28 6 -57 11 -64 11 -8 0 -24 -55 -47 -162z"/>
<path d="M4123 487 c-28 -6 -43 -15 -43 -25 0 -9 14 -83 32 -165 l32 -149 48
6 c92 13 89 -1 49 184 -38 180 -30 171 -118 149z"/>
<path d="M3107 403 c-19 -151 -29 -284 -23 -290 3 -4 33 -9 65 -11 l58 -4 6
33 c3 19 11 92 18 162 14 145 13 147 -53 147 -20 0 -43 2 -51 6 -11 4 -16 -7
-20 -43z"/>
<path d="M3823 441 c-28 -4 -55 -10 -59 -14 -7 -6 10 -217 23 -296 l6 -33 58
4 c32 2 62 7 65 11 4 4 2 60 -5 124 -18 180 -23 213 -30 212 -3 -1 -29 -5 -58
-8z"/>
</g>
</svg>
